<svg
    xmlns="http://www.w3.org/2000/svg" viewBox="0 0 64 64" fill="none" shape-rendering="auto" aria-hidden="true" width="512" height="512">
    <!-- Generated by DiceBear (https://dicebear.com) -->
    <metadata
        xmlns:rdf="http://www.w3.org/1999/02/22-rdf-syntax-ns#"
        xmlns:xsi="http://www.w3.org/2001/XMLSchema-instance"
        xmlns:dc="http://purl.org/dc/elements/1.1/"
        xmlns:dcterms="http://purl.org/dc/terms/">
        <rdf:RDF>
            <rdf:Description>
                <dc:title>Personas by Draftbit</dc:title>
                <dc:creator>Draftbit - draftbit.com</dc:creator>
                <dc:source xsi:type="dcterms:URI">https://personas.draftbit.com/</dc:source>
                <dcterms:license xsi:type="dcterms:URI">https://creativecommons.org/licenses/by/4.0/</dcterms:license>
                <dc:rights>Remix of “Personas by Draftbit” (https://personas.draftbit.com/) by “Draftbit - draftbit.com”, licensed under “CC BY 4.0” (https://creativecommons.org/licenses/by/4.0/)</dc:rights>
            </rdf:Description>
        </rdf:RDF>
    </metadata>
    <defs>
        <g id="eyes-sleep-5317ef10">
            <path d="M7.5 3.63a1 1 0 0 1 1 1.74A4.5 4.5 0 0 1 6.25 6 4.5 4.5 0 0 1 4 5.37a1 1 0 0 1 1-1.74Q5.65 4 6.25 4t1.25-.37m12 0a1 1 0 0 1 1 1.74 4.5 4.5 0 0 1-2.25.63A4.5 4.5 0 0 1 16 5.37a1 1 0 0 1 1-1.74q.65.37 1.25.37t1.25-.37" fill="#1B0640"/>
        </g>
        <g id="hair-shortCombover-5317ef10">
            <path d="M32.76 10.13a7.9 7.9 0 0 1 4.6 8.35l-.86 6.02q-4.25-2.55-5.6-11.56a9.2 9.2 0 0 1-5.7 2.77q-2.73.3-4.7.3-4.5 0-8-1.5 0 5.5-4 10.5l-.92-8.51a9 9 0 0 1 8.95-9.98H33.5q0 1.94-.74 3.63" fill="#e16381"/>
            <path d="M33.5 6.5a9.24 9.24 0 0 1-8.3 9.21 46 46 0 0 1-4.7.29q-4.5 0-8-1.5 0 5.5-4 10.5l-.92-8.53a9 9 0 0 1 8.95-9.97zm1.46 5.1a7.9 7.9 0 0 1 2.4 6.88l-.86 6.02q-3.44-2.07-4.99-8.39a9.3 9.3 0 0 0 3.48-4.5" fill="white" opacity=".26" style="mix-blend-mode:overlay"/>
        </g>
        <g id="clothes-rounded-5317ef10">
            <path d="M16 4.8v.47a5 5 0 0 0 10 0V4.8c7.06 1.52 12.93 6.74 16 13H0c3.07-6.26 8.94-11.48 16-13" fill="#7555ca"/>
        </g>
        <g id="mouth-pacifier-5317ef10">
            <path fill-rule="evenodd" clip-rule="evenodd" d="M2.04 0q.35 0 .69.12a6.6 6.6 0 0 0 4.54 0A2.04 2.04 0 0 1 10 2.02c0 1.4-.82 2.61-2 3.18a3 3 0 0 1-6 0 3.5 3.5 0 0 1-2-3.17C0 .9.91 0 2.04 0m1.55 5.53a1.5 1.5 0 0 0 2.82 0z" fill="#456DFF"/>
            <path d="M5 3.53a1.5 1.5 0 0 1 1.42 2H3.58a1.5 1.5 0 0 1 1.42-2M2.04 0q.35 0 .69.12a6.6 6.6 0 0 0 4.54 0A2.04 2.04 0 0 1 10 2.02c0 1.4-.82 2.61-2 3.18v-.17a3 3 0 1 0-6 .17 3.5 3.5 0 0 1-2-3.17C0 .9.91 0 2.04 0" fill="white" fill-opacity=".3" style="mix-blend-mode:lighten"/>
            <circle cx="5" cy="3.04" r="1.5" fill="white"/>
        </g>
        <g id="nose-mediumRound-5317ef10">
            <path d="M3.25.75a.75.75 0 0 1 1.5 0c0 .84.91 1.75 2.25 1.75S9.25 1.6 9.25.75a.75.75 0 1 1 1.5 0C10.75 2.41 9.16 4 7 4S3.25 2.41 3.25.75" fill="black" opacity=".36" style="mix-blend-mode:overlay"/>
        </g>
        <clipPath id="clip-5317ef10">
            <rect width="64" height="64" rx="0" ry="0"/>
        </clipPath>
    </defs>
    <g clip-path="url(#clip-5317ef10)">
        <path d="M37 46.08V52a5 5 0 0 1-10 0v-5.92A14 14 0 0 1 18.58 37h-.08a4.5 4.5 0 0 1-.5-8.97V27a14 14 0 1 1 28 0v1.03a4.5 4.5 0 0 1-.58 8.97A14 14 0 0 1 37 46.08" fill="#b16a5b"/>
        <mask id="personas-a" style="mask-type:luminance">
            <path d="M37 46.08V52a5 5 0 0 1-10 0v-5.92A14 14 0 0 1 18.58 37h-.08a4.5 4.5 0 0 1-.5-8.97V27a14 14 0 1 1 28 0v1.03a4.5 4.5 0 0 1-.58 8.97A14 14 0 0 1 37 46.08" fill="white"/>
        </mask>
        <g mask="url(#personas-a)">
            <path d="M32 13a14 14 0 0 1 14 14v6a14 14 0 1 1-28 0v-6a14 14 0 0 1 14-14" fill="white" opacity=".36" style="mix-blend-mode:overlay"/>
        </g>
        <use transform="translate(20 24)" href="#eyes-sleep-5317ef10"/>
        <use transform="translate(9.5 4.5)" href="#hair-shortCombover-5317ef10"/>
        <use transform="translate(11 46.2)" href="#clothes-rounded-5317ef10"/>
        <use transform="translate(27 37.46)" href="#mouth-pacifier-5317ef10"/>
        <use transform="translate(25 32.25)" href="#nose-mediumRound-5317ef10"/>
    </g>
</svg>